# xmcd
#
# Track frame offsets:
#	150
#	14108
#	31475
#	46762
#	61207
#	76209
#	92704
#	107699
#	121173
#	136294
#	153233
#	168122
#	184583
#	199960
#	216189
#	232450
#	247726
#	263852
#	278274
#	293643
#	307778
#	323930
#
# Disc length: 4537 seconds
#
# Revision: 1
# Processed by: cddbd v1.5.2PL0 Copyright (c) Steve Scherf et al.
# Submitted via: audiograbber 1.83.01
#
DISCID=2711b716
DTITLE=Various Artist - CDX Volume 622 (September 14, 2015)
DYEAR=2015
DGENRE=Country
TTITLE0=Mo Pitney - Boy And A Girl Thing
TTITLE1=Sam Hunt - Break Up In A Small Town 
TTITLE2=Jon Pardi - Head Over Boots 
TTITLE3=Lauren Alaina - Next Boyfriend 
TTITLE4=Carrie Underwood - Smoke Break
TTITLE5=John Anderson - Don't Forget To Thank The Lord
TTITLE6=Aaron Watson - Getaway Truck
TTITLE7=Dallas Smith - Kids With Cars
TTITLE8=Rachele Lynae - Quicksand
TTITLE9=Craig Morgan - When I'm Gone
TTITLE10=Brent Harrison - Backwoods Bucket List
TTITLE11=Makenna and Brock - Burnin' The Night Down
TTITLE12=Jim Brown - By God
TTITLE13=Houston Bernard Band - Home Is In Your Arms
TTITLE14=Rachael Turner - I Don't Love You
TTITLE15=Chris Carpenter - Moonshine Baby
TTITLE16=Ward Davis ( (with Jamey Johnson and WIllie Nelson) - Old Wore Out Cowbo
TTITLE16=ys
TTITLE17=Parker Willingham - One Kiss At A Time 
TTITLE18=Chelsea Bain - Power Of A Woman
TTITLE19=SaraBeth - Runnin' Outta Lipstick
TTITLE20=Chris Higbee - Turning Up A Sundown 
TTITLE21=Zach Linley ANd The Rebel Daredevils - What It Takes
EXTD=
EXTT0=
EXTT1=
EXTT2=
EXTT3=
EXTT4=
EXTT5=
EXTT6=
EXTT7=
EXTT8=
EXTT9=
EXTT10=
EXTT11=
EXTT12=
EXTT13=
EXTT14=
EXTT15=
EXTT16=
EXTT17=
EXTT18=
EXTT19=
EXTT20=
EXTT21=
PLAYORDER=
